<svg xmlns="http://www.w3.org/2000/svg" width="350" height="60.3"><path fill="#FFF" d="M7.6 22.4c-1 2.4-1.6 5-1.6 7.7 0 2.8.5 5.4 1.6 7.9 1 2.5 2.5 4.6 4.3 6.5 1.8 1.9 3.9 3.3 6.3 4.4 2.4 1.1 4.9 1.6 7.6 1.6 2.3 0 4.5-.4 6.6-1.1 2-.7 4-1.8 5.8-3.3.3-.3.7-.4 1.1-.3.4.1.8.3 1.1.6.3.3.5.7.5 1.3 0 .2 0 .5-.1.7 0 .2-.2.4-.4.6-2 2-4.2 3.3-6.8 4-2.6.7-5.2 1.1-7.9 1.1-3.2 0-6.2-.6-9-1.9-2.8-1.3-5.3-3-7.4-5.2-2.1-2.2-3.8-4.8-5.1-7.6-1.2-2.9-1.9-6-1.9-9.2 0-3.2.6-6.3 1.8-9.2 1.2-2.9 2.9-5.4 5-7.6 2.1-2.2 4.6-3.9 7.4-5.2 2.8-1.3 5.9-1.9 9.1-1.9 2.7 0 5.4.4 7.8 1.3 2.5.9 4.8 2.2 6.9 4 .4.3.5.7.5 1.2s-.2.9-.5 1.3-.8.6-1.3.6c-.2 0-.3 0-.5-.1s-.3-.1-.5-.2-.3-.2-.5-.4c-1.6-1.4-3.4-2.5-5.4-3.1-2-.6-4.2-1-6.6-1-2.7 0-5.2.5-7.6 1.6-2.4 1.1-4.5 2.6-6.3 4.5-1.5 1.9-2.9 4-4 6.4zm69.5 6.2c1.5 2.5 2.2 5.4 2.2 8.6 0 3.1-.7 6-2.2 8.5-1.5 2.5-3.4 4.5-5.9 6-2.5 1.5-5.4 2.2-8.5 2.2-3.2 0-6-.7-8.6-2.2-2.5-1.5-4.5-3.4-6-6-1.5-2.5-2.2-5.4-2.2-8.5 0-3.2.7-6 2.2-8.6 1.5-2.5 3.4-4.5 6-6 2.5-1.5 5.4-2.2 8.6-2.2 3.2 0 6 .7 8.5 2.2 2.4 1.5 4.4 3.5 5.9 6zm-1.4 8.5c0-2.5-.6-4.8-1.7-6.8s-2.7-3.6-4.7-4.8c-2-1.2-4.2-1.8-6.7-1.8s-4.7.6-6.7 1.8c-2 1.2-3.6 2.8-4.7 4.8-1.2 2-1.7 4.3-1.7 6.8s.6 4.8 1.7 6.8c1.2 2 2.7 3.6 4.7 4.8 2 1.2 4.2 1.8 6.7 1.8s4.7-.6 6.7-1.8c2-1.2 3.5-2.8 4.7-4.8 1.1-2 1.7-4.2 1.7-6.8zm20.6 12.8h-1.5c-1.2 0-2.2-.6-3-1.8-.8-1.2-1.2-2.7-1.2-4.5v-35c0-.6-.2-1-.5-1.3-.3-.3-.8-.5-1.3-.5s-.9.2-1.3.5c-.3.4-.5.8-.5 1.3v35c0 1.9.3 3.7 1 5.1.7 1.5 1.6 2.6 2.7 3.5 1.2.8 2.5 1.3 4 1.3H96c.6 0 1-.2 1.3-.5.3-.3.5-.8.5-1.3 0-.6-.1-1-.4-1.3-.3-.3-.7-.5-1.1-.5zm16.1 0h-1.5c-1.2 0-2.2-.6-3-1.8-.8-1.2-1.2-2.7-1.2-4.5v-35c0-.6-.2-1-.5-1.3-.3-.3-.8-.5-1.3-.5s-.9.2-1.3.5c-.3.3-.5.8-.5 1.3v35c0 1.9.3 3.7 1 5.1.7 1.5 1.6 2.6 2.7 3.5 1.2.8 2.5 1.3 4 1.3h1.2c.6 0 1-.2 1.3-.5.3-.3.5-.8.5-1.3 0-.6-.1-1-.4-1.3-.2-.3-.6-.5-1-.5zm32.9-21.6c1.3 2.4 1.9 5.2 1.9 8.3 0 .5-.2.9-.5 1.2-.3.3-.7.4-1.3.4h-25c.1 2.1.6 4.1 1.6 5.8 1.1 2 2.6 3.6 4.5 4.7s4.1 1.7 6.6 1.7c1.6 0 3.1-.3 4.7-.8s2.8-1.2 3.7-2.1c.3-.3.7-.5 1.2-.5s.8.1 1.2.4c.4.4.7.8.7 1.2 0 .4-.2.8-.6 1.2-1.3 1.2-2.9 2.1-5 2.9-2 .8-4 1.1-5.9 1.1-3.1 0-5.9-.7-8.4-2.1-2.4-1.4-4.4-3.4-5.8-5.9-1.4-2.5-2.1-5.4-2.1-8.6 0-3.3.7-6.1 2-8.6s3.1-4.4 5.4-5.9c2.3-1.4 5-2.1 7.9-2.1 2.9 0 5.6.7 7.8 2.1 2.4 1.3 4.2 3.1 5.4 5.6zm-1.5 6.9c-.1-1.8-.6-3.4-1.3-4.9-1-2-2.3-3.6-4.1-4.7-1.8-1.1-3.8-1.7-6.2-1.7-2.3 0-4.3.6-6.1 1.7-1.8 1.1-3.2 2.7-4.2 4.7-.7 1.5-1.2 3.1-1.4 4.9h23.3zM174.3 22c-2.1-1-4.4-1.5-7-1.5-3 0-5.6.7-7.9 2.2-2.3 1.5-4.1 3.4-5.4 5.9-1.3 2.5-2 5.4-2 8.5 0 3.1.7 6 2.1 8.5 1.4 2.5 3.3 4.5 5.8 6 2.4 1.5 5.2 2.2 8.3 2.2 4.3 0 8-1.3 10.9-4 .4-.3.5-.7.5-1.2s-.2-.9-.6-1.2c-.3-.3-.7-.5-1.1-.4-.4 0-.8.2-1.2.5-1.1 1-2.3 1.7-3.8 2.2-1.5.5-3 .7-4.6.7-2.5 0-4.7-.6-6.6-1.8-1.9-1.2-3.4-2.8-4.4-4.8-1.1-2-1.6-4.3-1.6-6.8 0-2.6.5-4.9 1.5-6.9s2.3-3.6 4.1-4.7c1.8-1.2 3.8-1.7 6.2-1.7 3.9 0 7.2 1.5 9.7 4.5.3.4.7.6 1.1.7.4.1.8 0 1.2-.3.4-.3.7-.6.8-1.1.1-.4 0-.9-.4-1.3-1.6-1.8-3.4-3.2-5.6-4.2zm29.6 27.8h-1.3c-2.3 0-4.1-.7-5.6-2.2-1.4-1.5-2.1-3.3-2.1-5.6V25.2h7.9c.5 0 .9-.1 1.2-.4.3-.3.4-.7.4-1.2s-.1-.9-.4-1.2c-.3-.3-.7-.4-1.2-.4h-7.9v-9.7c0-.6-.2-1-.5-1.3-.3-.3-.8-.5-1.3-.5s-.9.2-1.3.5c-.3.3-.5.8-.5 1.3V22h-4.7c-.5 0-.9.1-1.2.4-.3.3-.4.7-.4 1.2s.1.9.4 1.2c.3.3.7.4 1.2.4h4.7V42c0 2.2.5 4.1 1.4 5.9 1 1.7 2.3 3.1 4 4.1 1.7 1 3.7 1.5 5.9 1.5h1.4c.6 0 1-.2 1.3-.5.3-.3.5-.8.5-1.3 0-.6-.2-1-.5-1.3-.3-.4-.8-.6-1.4-.6zm26.5-23.1c-3.1-.3-5.5-.9-7.1-1.7-1.7-.8-2.8-1.7-3.4-2.8-.6-1.1-.9-2.2-.9-3.4 0-2.3 1-4.1 3-5.2 2-1.1 4.5-1.7 7.4-1.6 1.7 0 3.1.2 4.4.7 1.2.5 2.3 1.1 3.2 1.9.9.8 1.7 1.8 2.3 2.9.4.8 1.1 1.3 2 1.6.9.3 1.7.2 2.4-.3.7-.4 1.1-1 1.2-1.8.1-.8-.1-1.6-.7-2.5-1-1.6-2.2-3-3.5-4.2-1.4-1.2-2.9-2.1-4.7-2.8-1.8-.7-3.9-1-6.4-1-3.1 0-5.9.5-8.4 1.4-2.5 1-4.5 2.3-6 4.2-1.5 1.8-2.2 4.1-2.2 6.7 0 3.6 1.4 6.6 4.2 9 2.8 2.4 6.7 3.9 11.6 4.4 3.8.4 6.5 1.4 8.1 3.1 1.7 1.7 2.5 3.6 2.5 5.7 0 1.7-.5 3.1-1.5 4.2s-2.3 2-3.9 2.6c-1.6.6-3.4.9-5.3.9-1.7 0-3.3-.3-4.9-.8-1.6-.5-2.9-1.2-4-2s-1.9-1.8-2.4-2.7c-.4-.8-.9-1.3-1.6-1.7-.7-.4-1.4-.5-2.1-.3-1 .2-1.7.7-2.1 1.4-.4.7-.4 1.5 0 2.3.8 1.9 2 3.5 3.8 5 1.7 1.4 3.7 2.5 6 3.3 2.3.8 4.7 1.2 7.3 1.2 2.1 0 4.2-.3 6.2-.8 2-.6 3.8-1.4 5.4-2.5 1.6-1.1 2.8-2.5 3.8-4.2.9-1.7 1.4-3.6 1.4-5.9 0-3.9-1.3-7.1-4-9.5-2.7-2.8-6.4-4.3-11.1-4.8zm68-6.2c1.2 2.9 1.7 6.1 1.7 9.6s-.6 6.7-1.7 9.6c-1.2 2.9-2.8 5.5-4.9 7.6-2.1 2.1-4.6 3.8-7.5 5-2.9 1.2-6.1 1.8-9.6 1.8s-6.7-.6-9.6-1.8c-2.9-1.2-5.4-2.8-7.5-5-2.1-2.1-3.7-4.7-4.9-7.6-1.2-2.9-1.7-6.1-1.7-9.6s.6-6.7 1.7-9.6c1.2-2.9 2.8-5.4 4.9-7.6 2.1-2.1 4.6-3.8 7.5-5 2.9-1.2 6.1-1.8 9.6-1.8s6.7.6 9.6 1.8c2.9 1.2 5.4 2.8 7.5 5 2.2 2.2 3.8 4.7 4.9 7.6zm-4.2 9.6c0-2.6-.4-5-1.3-7.2s-2.1-4.2-3.7-5.8c-1.6-1.7-3.5-2.9-5.6-3.8-2.2-.9-4.5-1.4-7.1-1.4-2.6 0-5 .5-7.1 1.4-2.2.9-4 2.2-5.6 3.8-1.6 1.7-2.8 3.6-3.7 5.8-.9 2.2-1.3 4.6-1.3 7.2 0 2.6.4 5 1.3 7.2s2.1 4.2 3.7 5.8c1.6 1.7 3.4 2.9 5.6 3.9 2.2.9 4.5 1.4 7.1 1.4 2.6 0 5-.5 7.1-1.4 2.2-.9 4-2.2 5.6-3.9 1.6-1.7 2.8-3.6 3.7-5.8.9-2.2 1.3-4.6 1.3-7.2zm52.5-22.4c-.6-.6-1.3-.9-2.2-.9-.9 0-1.6.3-2.2.9-.6.6-.9 1.3-.9 2.2v32.6L315.3 8c-.6-.8-1.4-1.1-2.4-1.1-.9 0-1.6.3-2.2.9-.6.6-.9 1.3-.9 2.2v40.4c0 .9.3 1.6.9 2.2.6.6 1.3.9 2.2.9.9 0 1.7-.3 2.2-.9.6-.6.9-1.3.9-2.2V17.8l26 34.6c.3.4.6.6 1.1.8.5.2.9.3 1.3.3.9 0 1.7-.3 2.2-.9.6-.6.8-1.3.8-2.2V10c.1-1-.2-1.7-.7-2.3z"/></svg>