<svg xmlns="http://www.w3.org/2000/svg" width="350" height="350" preserveAspectRatio="none"><rect fill="#B30000" width="350" height="350" rx="25"/><path fill="#fff" d="M241 108.3c-8.3-8.5-18.1-15.1-29.3-19.7-11.3-4.7-23.5-7-36.6-7-13.4 0-25.7 2.3-36.9 7-11.3 4.7-21 11.3-29.3 19.7-8.3 8.5-14.7 18.4-19.3 29.8-4.6 11.4-6.9 23.6-6.9 36.8 0 13.4 2.3 25.7 6.9 37.1 4.6 11.4 11 21.3 19.3 29.8s18.1 15.1 29.3 19.7c11.3 4.7 23.6 7 36.9 7 13.2 0 25.4-2.3 36.6-7 11.3-4.7 21-11.3 29.3-19.7 8.3-8.5 14.7-18.4 19.3-29.8 4.6-11.3 6.9-23.7 6.9-37.1 0-13.2-2.3-25.4-6.9-36.8-4.6-11.4-11-21.3-19.3-29.8zm-66.3 140c.1 0 .1.1 0 0-2.7-1-43.9-18.6-43.9-72.9 0-53.7 41.1-71.7 43.7-72.7.9.3 44.1 17.4 44.1 73 .1 55.4-43.9 72.6-43.9 72.6z"/><path fill="#fff" d="M185.1 25.6c1.8.3 3.7.6 5.7 1.1-5.7-1-11.1-1.5-16.1-1.5C98 25.2 25 88.6 25 175.3 25 271.6 108.7 325 174.7 325h-.1.7C252 325 325 261.6 325 174.9c0-91.6-75.7-144.4-139.9-149.3zm95.6 195c-5.6 13.9-13.6 26-23.9 36.3-10.3 10.3-22.4 18.3-36.3 24-13.9 5.7-29.1 8.6-45.5 8.6-16.6 0-31.9-2.9-45.8-8.6-13.9-5.7-26-13.7-36.2-24-10.2-10.3-18.1-22.4-23.8-36.3-5.6-13.9-8.4-29.2-8.4-45.8 0-16.4 2.8-31.6 8.4-45.5 5.6-13.9 13.5-26 23.8-36.3 10.2-10.3 22.3-18.3 36.2-24 13.9-5.7 29.2-8.6 45.8-8.6 16.4 0 31.6 2.9 45.5 8.6 13.9 5.7 26 13.7 36.3 24 10.3 10.3 18.3 22.4 23.9 36.3 5.6 13.9 8.4 29.1 8.4 45.5.1 16.7-2.7 31.9-8.4 45.8z"/></svg>